<?xml version="1.0" encoding="UTF-8"?>
<svg id="Layer_1" data-name="Layer 1" xmlns="http://www.w3.org/2000/svg" viewBox="0 0 1024 1024">
  <defs>
    <style>
      .cls-1 {
        fill: #fc8742;
      }

      .cls-2 {
        fill: #232323;
      }
    </style>
  </defs>
  <circle class="cls-2" cx="829.15" cy="512" r="125.19"/>
  <circle class="cls-2" cx="512" cy="201.52" r="125.19"/>
  <circle class="cls-2" cx="194.85" cy="512" r="125.19"/>
  <path class="cls-2" d="M365.98,393.07c-12.67,0-23.81-8.97-26.48-21.33-4.33-20.01-17.35-37.06-35.51-46.51-9.94-5.17-20.86-7.78-31.8-7.78-9.05,0-18.12,1.78-26.67,5.37-16.04,6.74-33.09,10.15-50.66,10.15-72.48,0-131.45-58.97-131.45-131.45S122.37,70.07,194.85,70.07s131.45,58.97,131.45,131.45c0,15.78-2.77,31.2-8.23,45.82-7.17,19.18-5.43,40.55,4.74,58.32,10.17,17.77,27.72,30.09,47.89,33.62,12.75,2.23,22.37,13.71,22.37,26.69,0,14.94-12.15,27.09-27.09,27.09Z"/>
  <path class="cls-1" d="M664.7,399.75c-14.94,0-27.09-12.15-27.09-27.09,0-12.67,8.97-23.81,21.33-26.48,20.01-4.33,37.06-17.35,46.51-35.51,9.45-18.16,10.33-39.59,2.4-58.47-6.74-16.04-10.15-33.08-10.15-50.66,0-72.48,58.97-131.45,131.45-131.45s131.45,58.97,131.45,131.45-58.97,131.45-131.45,131.45c-15.78,0-31.2-2.77-45.82-8.23-7.8-2.91-15.97-4.36-24.1-4.36-11.87,0-23.68,3.07-34.22,9.1-17.77,10.17-30.09,27.72-33.62,47.89-2.23,12.75-13.71,22.37-26.69,22.37Z"/>
  <path class="cls-1" d="M194.85,953.93c-72.48,0-131.45-58.97-131.45-131.45s58.97-131.45,131.45-131.45c17.58,0,34.62,3.42,50.66,10.15,8.55,3.59,17.62,5.38,26.67,5.38,10.94,0,21.86-2.61,31.8-7.78,18.16-9.45,31.18-26.5,35.51-46.51,2.68-12.36,13.82-21.33,26.48-21.33,14.94,0,27.09,12.15,27.09,27.09,0,12.98-9.62,24.45-22.37,26.69-20.17,3.53-37.72,15.85-47.89,33.62-10.17,17.77-11.91,39.14-4.75,58.32,5.46,14.62,8.23,30.04,8.23,45.83,0,72.48-58.97,131.45-131.45,131.45Z"/>
  <path class="cls-2" d="M829.15,953.93c-72.48,0-131.45-58.97-131.45-131.45,0-17.58,3.42-34.62,10.15-50.66,7.93-18.88,7.05-40.31-2.4-58.47-9.45-18.16-26.5-31.18-46.51-35.51-12.36-2.68-21.33-13.82-21.33-26.49,0-14.94,12.15-27.09,27.09-27.09,12.98,0,24.45,9.62,26.69,22.37,3.53,20.17,15.85,37.72,33.62,47.89,10.54,6.03,22.35,9.1,34.22,9.1,8.14,0,16.3-1.44,24.1-4.36,14.62-5.46,30.04-8.23,45.82-8.23,72.48,0,131.45,58.97,131.45,131.45s-58.97,131.45-131.45,131.45Z"/>
  <circle class="cls-2" cx="512" cy="822.48" r="125.19"/>
  <circle class="cls-1" cx="512" cy="512" r="125.19"/>
</svg>